PathFileType	4	(X/Y/Z)	C:/Users/labor/Downloads/static_updated_hjc.trc	
DataRate	CameraRate	NumFrames	NumMarkers	Units	OrigDataRate	OrigDataStartFrame	OrigNumFrames	
200.00	200.00	5	69	mm	200.00	296	175	
Frame#	Time	FHD			LBHD			RBHD			RBAR			LBAR			RASI			RSACR			LSACR			LASI			USACR			C7			CLAV			T10			RSHO			LSHO			LTHI1			LTHI3			LTHI2			LTHI4			LLFC			LMFC			LTIB1			LTIB2			LTIB3			LTIB4			LMMAL			LLMAL			LHEE			LMT1			LMT5			LMT3			RTHI1			RTHI2			RTHI3			RTHI4			RLFC			RMFC			RTIB1			RTIB3			RTIB2			RTIB4			RLMAL			RMMAL			RHEE			RMT5			RMT1			RMT3			LMEP			LLEP			LDUPA			LMUPA			LUUPA			LUL			LRAD			LRFIN			RUL			RRAD			RUFIN			RMEP			RLEP			RMUPA			RDUPA			RUUPA			LAJC			RAJC			LKJC			RKJC			RHJC			LHJC			
		X1	Y1	Z1	X2	Y2	Z2	X3	Y3	Z3	X4	Y4	Z4	X5	Y5	Z5	X6	Y6	Z6	X7	Y7	Z7	X8	Y8	Z8	X9	Y9	Z9	X10	Y10	Z10	X11	Y11	Z11	X12	Y12	Z12	X13	Y13	Z13	X14	Y14	Z14	X15	Y15	Z15	X16	Y16	Z16	X17	Y17	Z17	X18	Y18	Z18	X19	Y19	Z19	X20	Y20	Z20	X21	Y21	Z21	X22	Y22	Z22	X23	Y23	Z23	X24	Y24	Z24	X25	Y25	Z25	X26	Y26	Z26	X27	Y27	Z27	X28	Y28	Z28	X29	Y29	Z29	X30	Y30	Z30	X31	Y31	Z31	X32	Y32	Z32	X33	Y33	Z33	X34	Y34	Z34	X35	Y35	Z35	X36	Y36	Z36	X37	Y37	Z37	X38	Y38	Z38	X39	Y39	Z39	X40	Y40	Z40	X41	Y41	Z41	X42	Y42	Z42	X43	Y43	Z43	X44	Y44	Z44	X45	Y45	Z45	X46	Y46	Z46	X47	Y47	Z47	X48	Y48	Z48	X49	Y49	Z49	X50	Y50	Z50	X51	Y51	Z51	X52	Y52	Z52	X53	Y53	Z53	X54	Y54	Z54	X55	Y55	Z55	X56	Y56	Z56	X57	Y57	Z57	X58	Y58	Z58	X59	Y59	Z59	X60	Y60	Z60	X61	Y61	Z61	X62	Y62	Z62	X63	Y63	Z63	X64	Y64	Z64	X65	Y65	Z65	X66	Y66	Z66	X67	Y67	Z67	X68	Y68	Z68	X69	Y69	Z69	

132	0.655	116.86304	931.09174	1729.25928	286.05661	852.78497	1696.25476	242.15730	1005.95050	1725.10437	2013.77441	2007.83923	28.04756	1903.39636	-212.67030	23.75693	156.20233	1062.84814	969.80701	345.73306	958.87128	977.22339	343.31033	916.58405	973.12335	151.19023	813.63000	973.91351	336.28372	933.72058	985.75305	318.95889	924.40985	1480.68298	162.66872	925.00708	1432.10962	330.98703	934.80194	1169.25037	298.71851	1085.92822	1467.37720	285.11481	763.95471	1460.98157	220.30199	733.03986	813.34131	187.67456	733.09399	790.55725	235.00218	724.53467	774.41180	189.76143	724.71857	726.19690	260.21527	743.52087	499.31924	235.45155	847.81573	469.53976	319.16656	731.28119	416.57123	295.40353	714.94000	378.12650	342.60925	728.02582	366.69907	308.64685	710.73187	313.64209	251.76743	822.21027	96.75375	282.04852	736.76581	76.73673	331.19781	786.24731	35.51036	111.26058	775.09271	41.01145	155.16107	703.83527	29.49119	128.78503	724.59369	33.58584	207.36252	1143.83582	817.26495	207.99252	1149.36096	784.79187	160.89700	1130.81995	781.54572	187.27325	1146.46558	721.66638	255.28479	1124.73132	500.65366	241.79439	1003.27356	482.90811	306.08875	1136.98425	433.05432	339.33026	1142.72729	382.97800	289.15613	1154.51917	385.60080	312.01028	1155.67139	323.81915	287.95520	1132.24915	82.87024	248.73366	1049.73730	100.31432	328.37790	1073.71118	33.21674	172.49138	1181.87805	28.88103	119.22716	1119.17151	45.82333	130.74586	1159.87976	35.02481	212.83455	503.88171	1296.10095	272.27802	489.56342	1394.11511	304.74429	564.11664	1387.82312	323.29675	623.11780	1380.64502	297.21313	635.48218	1421.41980	226.74701	232.73396	1363.14172	168.14694	247.51045	1340.67920	157.77370	152.90225	1350.46436	247.37575	1607.97644	1396.78650	197.16940	1592.82007	1401.63745	181.86990	1697.92310	1401.65442	232.06969	1357.99048	1300.13513	283.64825	1363.28064	1402.20837	320.76184	1266.90454	1400.28186	285.78979	1284.29333	1432.04382	314.53027	1209.95642	1425.37268	266.90797	779.48804	86.74524	268.34443	1090.99323	91.59228	247.83341	795.66830	484.42950	248.53959	1064.00244	491.78088	246.24303	998.28436	977.78003	243.73698	873.67529	979.83328 
133	0.660	116.86157	931.06897	1729.26270	286.06427	852.76178	1696.24402	242.16531	1005.93512	1725.09216	2013.77942	2007.87476	28.02835	1903.45837	-212.50226	23.64033	156.19989	1062.86426	969.81439	345.72516	958.91254	977.22479	343.30359	916.61066	973.12103	151.18622	813.63831	973.91113	336.28317	933.73822	985.74817	318.95721	924.40387	1480.68665	162.66170	925.00928	1432.10376	330.99783	934.80566	1169.25781	298.71854	1085.91028	1467.39771	285.09961	763.94293	1460.95239	220.29330	733.06476	813.34058	187.64154	733.11566	790.58667	234.97662	724.53973	774.42352	189.76643	724.73993	726.19269	260.20078	743.53174	499.32828	235.43983	847.83112	469.54047	319.15338	731.28839	416.57840	295.41388	714.94989	378.12628	342.59262	728.08978	366.65030	308.62015	710.02478	313.95227	251.73599	822.61957	96.98334	282.04547	736.77142	76.72690	331.19974	786.23804	35.51156	111.25066	775.09491	41.01671	155.15450	703.84027	29.47840	128.77910	724.59863	33.58759	207.35583	1143.84900	817.26764	207.96835	1149.38928	784.82092	160.87614	1130.83936	781.55096	187.26590	1146.49292	721.66034	255.27151	1124.75061	500.66486	241.78894	1003.28650	482.91019	306.07776	1137.00220	433.04623	339.32156	1142.74268	382.97653	289.15009	1154.51697	385.59583	311.99902	1155.68750	323.83008	287.94995	1132.24756	82.86427	248.71561	1049.73132	100.32524	328.38312	1073.71277	33.22704	172.49341	1181.85974	28.88154	119.22816	1119.18408	45.82379	130.74144	1159.88953	35.03630	213.91893	503.02704	1295.84119	272.29187	489.55624	1394.08569	304.76440	564.12726	1387.77380	323.31705	623.11682	1380.61914	297.23474	635.48138	1421.38281	226.75745	232.73647	1363.11768	168.16103	247.51019	1340.65186	157.69113	153.19334	1350.51929	247.48279	1607.98083	1396.90002	197.26274	1592.82581	1401.74829	181.98914	1697.92737	1401.78821	232.12373	1358.03015	1300.16284	283.86768	1363.31714	1402.40039	320.76471	1266.89429	1400.33789	285.79361	1284.27771	1432.08997	314.53052	1209.94556	1425.42212	266.89073	779.69550	86.85512	268.33278	1090.98944	91.59475	247.82030	795.68143	484.43437	248.53023	1064.01855	491.78752	246.24153	998.30124	977.78128	243.73470	873.68826	979.82965 
134	0.665	116.85954	931.06079	1729.26440	286.06152	852.74976	1696.23389	242.15688	1005.92419	1725.08838	2013.73108	2007.92310	28.07812	1903.37244	-212.69066	23.76394	156.19450	1062.88867	969.82013	345.72302	958.92401	977.21667	343.29254	916.63104	973.11621	151.18053	813.66107	973.91241	336.27957	933.75555	985.74933	318.94385	924.37811	1480.67224	162.65817	924.99866	1432.09839	330.99008	934.82275	1169.25232	298.71109	1085.88696	1467.41931	285.09662	763.93176	1460.92798	220.28323	733.08868	813.33582	187.65044	733.14117	790.56836	234.98865	724.55737	774.41193	189.76482	724.77185	726.18481	260.19116	743.55243	499.32553	235.43582	847.84674	469.54138	319.15363	731.30603	416.57358	295.39542	714.96582	378.12787	342.54254	728.01422	366.76065	308.61880	710.73480	313.57413	251.59074	822.64203	96.95251	282.04852	736.77039	76.72848	331.19620	786.23645	35.51302	111.25523	775.09302	41.01631	155.15721	703.83044	29.48259	128.78770	724.59973	33.59257	207.33882	1143.86633	817.26636	207.94873	1149.41370	784.80328	160.86972	1130.84558	781.54651	187.23676	1146.48413	721.66168	255.26622	1124.76050	500.65726	241.78014	1003.30518	482.91959	306.06549	1137.00586	433.04419	339.30945	1142.75452	382.97797	289.13242	1154.52771	385.59235	311.98013	1155.68774	323.82401	287.94684	1132.25024	82.86794	248.72496	1049.73145	100.30479	328.38000	1073.71521	33.22452	172.47621	1181.86951	28.89765	119.21607	1119.18030	45.82515	130.74031	1159.90063	35.05111	214.04262	503.43756	1295.61072	272.28992	489.55878	1394.06189	304.78101	564.13367	1387.74707	323.31885	623.12006	1380.58411	297.25189	635.47565	1421.35229	226.77145	232.73672	1363.09753	168.17986	247.50609	1340.62341	157.86327	152.98181	1350.43213	247.56194	1607.97827	1397.00903	197.33904	1592.83264	1401.85730	182.08788	1697.93616	1401.92761	232.13483	1358.02917	1300.24707	283.90421	1363.28955	1402.46033	320.77448	1266.87512	1400.38855	285.79559	1284.26514	1432.13477	314.53711	1209.92944	1425.47278	266.81963	779.70621	86.84050	268.33590	1090.99084	91.58637	247.81349	795.69958	484.43346	248.52318	1064.03284	491.78842	246.23704	998.32211	977.78473	243.73005	873.70831	979.83087 
135	0.670	116.85522	931.03271	1729.26270	286.05020	852.73230	1696.23669	242.14468	1005.90405	1725.08728	2013.78271	2007.83911	28.02253	1903.40161	-212.65527	23.74280	156.19188	1062.90808	969.82758	345.72153	958.95502	977.22400	343.28976	916.66150	973.11652	151.17998	813.68945	973.90851	336.27786	933.79059	985.75208	318.89310	924.35919	1480.67444	162.66054	924.99298	1432.09106	330.98129	934.83398	1169.25085	298.71686	1085.86218	1467.43787	285.10489	763.93530	1460.90710	220.27815	733.11102	813.33331	187.65666	733.15894	790.58398	234.96049	724.59497	774.41046	189.75728	724.79370	726.18298	260.18588	743.57385	499.32205	235.43152	847.86469	469.53641	319.14374	731.32605	416.57672	295.39273	714.98608	378.12997	342.33502	728.22485	366.71115	308.61295	710.75085	313.65564	251.75981	822.21252	96.74077	282.04108	736.77966	76.71831	331.19159	786.23206	35.51249	111.25593	775.09094	41.01756	155.14943	703.83374	29.48816	128.78015	724.59436	33.59164	207.32988	1143.88855	817.26410	207.94330	1149.44385	784.82605	160.85616	1130.85864	781.54755	187.23602	1146.51489	721.66449	255.24429	1124.77222	500.65646	241.78841	1003.31549	482.91647	306.05411	1137.02820	433.04221	339.30765	1142.77075	382.97174	289.12347	1154.54565	385.59409	311.96490	1155.72400	323.84818	287.94620	1132.25415	82.87244	248.71379	1049.74585	100.31924	328.38107	1073.72058	33.22770	172.48511	1181.87134	28.88484	119.21469	1119.18091	45.82128	130.73637	1159.88342	35.03384	214.36931	503.01459	1295.47205	272.30420	489.56143	1394.02979	304.80154	564.13702	1387.70398	323.34219	623.11847	1380.55505	297.26248	635.47247	1421.31946	226.78459	232.72910	1363.07446	168.18834	247.50220	1340.60266	158.06740	153.27176	1350.40393	247.63696	1607.94922	1397.12292	197.41153	1592.82910	1401.97571	182.19092	1697.93872	1402.05505	232.20157	1358.05933	1300.25635	284.00882	1363.27771	1402.67017	320.78638	1266.86731	1400.43518	285.81143	1284.25354	1432.17798	314.54193	1209.91431	1425.50854	266.90044	779.49609	86.72954	268.32999	1091.00000	91.59584	247.80870	795.71927	484.42923	248.51635	1064.04385	491.78647	246.23487	998.34933	977.78983	243.72892	873.74002	979.83029 
136	0.675	116.83758	931.01733	1729.26306	286.05167	852.71619	1696.23669	242.12881	1005.88489	1725.08997	2013.80151	2007.85608	28.03512	1903.35559	-212.69466	23.77362	156.19649	1062.93628	969.83795	345.74164	958.96210	977.21631	343.28818	916.69000	973.11462	151.19012	813.71326	973.90210	336.27768	933.81506	985.75214	318.94012	924.34955	1480.69312	162.66406	924.97736	1432.09021	330.97992	934.85193	1169.24561	298.72473	1085.84521	1467.45276	285.11459	763.92065	1460.88831	220.27571	733.13629	813.33313	187.67355	733.18768	790.54871	234.96533	724.61169	774.40887	189.73970	724.82709	726.17987	260.18439	743.58624	499.32364	235.42690	847.87671	469.53967	319.13995	731.33228	416.57376	295.38263	714.99139	378.12131	342.50238	728.10413	366.70972	308.58780	710.73193	313.64044	251.61757	822.64984	96.97147	282.04050	736.77167	76.72923	331.19690	786.23334	35.51342	111.25174	775.09210	41.01653	155.15689	703.82635	29.48953	128.77933	724.59839	33.59110	207.31668	1143.90955	817.26550	207.92055	1149.47339	784.81427	160.84506	1130.87756	781.55237	187.23509	1146.50586	721.66534	255.23273	1124.78711	500.66562	241.78322	1003.33368	482.92026	306.04291	1137.04553	433.04642	339.29926	1142.78821	382.97641	289.10278	1154.57605	385.58493	311.97504	1155.73621	323.82925	287.94022	1132.24915	82.86296	248.72305	1049.74194	100.30984	328.37823	1073.71167	33.22326	172.47913	1181.87122	28.88186	119.21821	1119.17297	45.81689	130.74431	1159.88818	35.02806	214.35599	503.02545	1295.44702	272.31128	489.56232	1393.98035	304.82761	564.13788	1387.67603	323.36685	623.11273	1380.52502	297.28445	635.47144	1421.29004	226.79517	232.73376	1363.04272	168.19904	247.50333	1340.57104	157.79707	152.91382	1350.48291	247.70511	1607.95667	1397.25012	197.47928	1592.83276	1402.10010	182.28481	1697.95300	1402.16125	232.26125	1358.08606	1300.27502	284.08215	1363.30127	1402.75415	320.80731	1266.85388	1400.47668	285.83868	1284.24927	1432.21948	314.56137	1209.89832	1425.55029	266.82903	779.71075	86.85035	268.33163	1090.99554	91.58640	247.80564	795.73148	484.43166	248.50797	1064.06039	491.79294	246.23708	998.37567	977.79504	243.73390	873.76416	979.82712 
